<svg xmlns="http://www.w3.org/2000/svg" viewBox="0 0 81 52">
  <g fill="none" fill-rule="evenodd" transform="translate(-.5 -.5)">
    <polygon fill="#000" points="15 -14 67 -14 67 67 41 52.935 15 67" transform="matrix(0 -1 -1 0 67.5 67.5)"/>
    <path fill="#FFF" d="M2,0 L31,0 C32.1045695,-2.02906125e-16 33,0.8954305 33,2 C33,3.1045695 32.1045695,4 31,4 L2,4 C0.8954305,4 1.3527075e-16,3.1045695 0,2 C-1.3527075e-16,0.8954305 0.8954305,2.02906125e-16 2,0 Z M2,10 L21,10 C22.1045695,10 23,10.8954305 23,12 C23,13.1045695 22.1045695,14 21,14 L2,14 C0.8954305,14 1.3527075e-16,13.1045695 0,12 C-1.3527075e-16,10.8954305 0.8954305,10 2,10 Z M2,20 L31,20 C32.1045695,20 33,20.8954305 33,22 C33,23.1045695 32.1045695,24 31,24 L2,24 C0.8954305,24 1.3527075e-16,23.1045695 0,22 C-1.3527075e-16,20.8954305 0.8954305,20 2,20 Z" transform="translate(30.5 14.5)"/>
  </g>
</svg>
