<svg xmlns="http://www.w3.org/2000/svg" viewBox="0 0 30 24">
  <path fill="#F7BE00" d="M75.4838299,7.2085 C75.4965843,7.45825 75.5014898,7.71185714 75.5014898,7.96160714 C75.5014898,15.6604643 69.5412791,24.5347857 58.6421875,24.5347857 C55.2936773,24.5347857 52.1806323,23.5705 49.5581395,21.91675 C50.0231831,21.97075 50.4941134,21.9987143 50.9709302,21.9987143 C53.7494186,21.9987143 56.303234,21.0672143 58.3301962,19.507 C55.7381177,19.4587857 53.5482922,17.7770714 52.7948038,15.4627857 C53.1558503,15.5293214 53.527689,15.565 53.9093387,15.565 C54.4509084,15.565 54.9748183,15.4955714 55.4712573,15.3625 C52.7604651,14.8253929 50.7178052,12.4725357 50.7178052,9.64910714 L50.7178052,9.57678571 C51.5405879,10.0269099 52.4609339,10.2771871 53.4021076,10.30675 C51.8117369,9.2605 50.7648983,7.48042857 50.7648983,5.45735714 C50.7648983,4.39085714 51.0572674,3.38992857 51.568423,2.52882143 C54.4901526,6.05425 58.8580305,8.37142857 63.7831759,8.61539286 C63.6814331,8.17955661 63.6304154,7.73376762 63.6311047,7.28660714 C63.6311047,4.07167857 66.2820494,1.46521429 69.5550145,1.46521429 C71.2601744,1.46521429 72.7995276,2.17010714 73.881686,3.30314286 C75.2297238,3.04085714 76.4982922,2.55678571 77.6442224,1.8895 C77.2017442,3.24914286 76.2608648,4.39085714 75.0384084,5.11117857 C76.2373183,4.96942857 77.3773619,4.65892857 78.4418605,4.19510714 C77.6470894,5.36500249 76.6456022,6.38557198 75.484811,7.2085 L75.4838299,7.2085 Z" transform="translate(-49 -1)"/>
</svg>
