<svg xmlns="http://www.w3.org/2000/svg" viewBox="0 0 29 30">
  <path class="user-fill" d="M15,25.1503125 C18.4941797,25.1503125 21.5917969,23.3046094 23.4375,20.6014453 C23.3710547,17.8328906 17.7685547,16.2508594 15,16.2508594 C12.165,16.2508594 6.62789062,17.8328906 6.5625,20.6014453 C8.40820312,23.3046094 11.506875,25.1503125 15,25.1503125 Z M15,5.17769531 C12.6923437,5.17769531 10.78125,7.08984375 10.78125,9.39644531 C10.78125,11.7030469 12.6933984,13.6151953 15,13.6151953 C17.3066016,13.6151953 19.21875,11.7030469 19.21875,9.39644531 C19.21875,7.08984375 17.3066016,5.17769531 15,5.17769531 Z M15,0.958945312 C22.7783203,0.958945312 29.0410547,7.22167969 29.0410547,15 C29.0410547,22.7783203 22.7783203,29.0410547 15,29.0410547 C7.22167969,29.0410547 0.958945312,22.7783203 0.958945312,15 C0.958945312,7.22167969 7.22167969,0.958945312 15,0.958945312 Z" transform="translate(-.5)"/>
</svg>
