<svg xmlns="http://www.w3.org/2000/svg" class="icon-ame-controller" viewBox="0 0 18 14">
  <path d="M17.4996571,6.42517817 C16.7059878,1.99155317 14.931341,0.684303167 13.9869251,0.684303167 C12.5137714,0.684303167 12.1357801,1.77949067 8.99991449,1.81661567 C5.86461139,1.77949067 5.48662006,0.684303167 4.01290386,0.684303167 C3.06905051,0.684303167 1.29327873,1.99211567 0.499609436,6.42517817 C0.0468073203,8.95586567 -0.444243918,12.7341782 0.726291737,13.1875532 C2.18313333,13.7517407 2.67755949,12.3404282 4.27783529,11.1479282 C5.90229803,9.93911567 6.68190515,9.65505317 8.99991449,9.65505317 C11.3179238,9.65505317 12.0975309,9.93967817 13.7219937,11.1479282 C15.3222695,12.3393032 15.8161332,13.7517407 17.2735372,13.1875532 C18.4446354,12.7341782 17.9530217,8.95642817 17.4996571,6.42517817 Z M5.40055954,7.00005317 C4.40608234,7.00005317 3.60060082,6.19342817 3.60060082,5.20005317 C3.60060082,4.20555317 4.40608234,3.40005317 5.40055954,3.40005317 C6.39503673,3.40005317 7.20051826,4.20555317 7.20051826,5.20005317 C7.20051826,6.19342817 6.39391176,7.00005317 5.40055954,7.00005317 L5.40055954,7.00005317 Z M11.7004151,7.00005317 C11.202614,7.00005317 10.8004357,6.59786567 10.8004357,6.10005317 C10.8004357,5.60224067 11.202614,5.20005317 11.7004151,5.20005317 C12.1982161,5.20005317 12.6003944,5.60224067 12.6003944,6.10005317 C12.6003944,6.59786567 12.1982161,7.00005317 11.7004151,7.00005317 Z M13.5003738,5.20005317 C13.0025727,5.20005317 12.6003944,4.79786567 12.6003944,4.30005317 C12.6003944,3.80224067 13.0025727,3.40005317 13.5003738,3.40005317 C13.9981749,3.40005317 14.4003531,3.80224067 14.4003531,4.30005317 C14.4003531,4.79786567 13.9981749,5.20005317 13.5003738,5.20005317 Z"/>
</svg>
