<svg xmlns="http://www.w3.org/2000/svg" viewBox="0 0 175 193">
  <g fill="none" fill-rule="evenodd" transform="translate(0 -1)">
    <path fill="#000" d="M0.383317308,88.2767283 L0.383317308,91.4098844 L1.13267628,90.965815 C1.32786859,90.8525549 1.55110577,90.7897572 1.77995192,90.7897572 L2.83780449,90.7897572 L2.83780449,102.315376 C2.83780449,102.539653 2.77947115,102.762809 2.66168269,102.957931 L2.21633013,103.707017 L5.97658654,103.707017 L5.53235577,102.957931 C5.41344551,102.762809 5.35511218,102.539653 5.35511218,102.315376 L5.35511218,90.7897572 L6.41408654,90.7897572 C6.6418109,90.7897572 6.86616987,90.8525549 7.06024038,90.965815 L7.80959936,91.4098844 L7.80959936,88.2767283 L0.383317308,88.2767283 Z M18.9445353,88.2767283 C18.1660096,88.2767283 17.5333173,88.9091908 17.5333173,89.682948 L17.5333173,102.300798 C17.5333173,103.074555 18.1660096,103.707017 18.9445353,103.707017 L23.5495032,103.707017 C24.3280288,103.707017 24.9595994,103.074555 24.9595994,102.300798 L24.9595994,89.682948 C24.9595994,88.9091908 24.3280288,88.2767283 23.5495032,88.2767283 L18.9445353,88.2767283 Z M21.8802724,101.193988 L20.613766,101.193988 C20.2996635,101.193988 20.0461378,100.940555 20.0461378,100.632173 L20.0461378,91.3515723 C20.0461378,91.0443121 20.2996635,90.7897572 20.613766,90.7897572 L21.8802724,90.7897572 C22.1932532,90.7897572 22.4467788,91.0443121 22.4467788,91.3515723 L22.4467788,100.632173 C22.4467788,100.940555 22.1932532,101.193988 21.8802724,101.193988 L21.8802724,101.193988 Z M42.7310737,88.2767283 L39.5967788,88.2767283 L40.0264263,89.0033873 C40.1509455,89.2130867 40.2182532,89.4519422 40.2182532,89.6941618 L40.2182532,100.614231 C40.2182532,100.932705 39.956875,101.193988 39.6371635,101.193988 L38.3987019,101.193988 C38.0789904,101.193988 37.8220994,100.932705 37.8220994,100.614231 L37.8220994,89.6941618 C37.8220994,89.4519422 37.8837981,89.2130867 38.0094391,89.0078728 L38.4424519,88.2767283 L34.6833173,88.2767283 L35.1174519,89.0078728 C35.2408494,89.2130867 35.3036699,89.4519422 35.3036699,89.6941618 L35.3036699,102.461156 C35.3036699,103.147445 35.8623237,103.707017 36.549984,103.707017 L41.4858814,103.707017 C42.1735417,103.707017 42.7310737,103.147445 42.7310737,102.461156 L42.7310737,89.6941618 C42.7310737,89.4519422 42.7938942,89.2130867 42.9184135,89.0078728 L43.3525481,88.2767283 L42.7310737,88.2767283 Z M61.3113622,102.954566 C61.1969391,102.762809 61.1386058,102.543017 61.1386058,102.31874 L61.1386058,96.3002543 C61.1386058,95.6128439 59.8552724,95.0555145 59.1720994,95.0555145 C59.8552724,95.0555145 61.1386058,94.5004277 61.1386058,93.8130173 L61.1386058,89.5259538 C61.1386058,88.8363006 60.5810737,88.2767283 59.8889263,88.2767283 L53.0908494,88.2767283 L53.5384455,89.0291792 C53.6517468,89.2243006 53.7112019,89.4407283 53.7112019,89.6650058 L53.7112019,102.31874 C53.7112019,102.543017 53.6517468,102.762809 53.5384455,102.954566 L53.0908494,103.707017 L56.849984,103.707017 L56.401266,102.954566 C56.2868429,102.762809 56.2251442,102.543017 56.2251442,102.31874 L56.2251442,96.3148324 L58.1445353,96.3148324 C58.4081571,96.3148324 58.6257853,96.527896 58.6257853,96.7936647 L58.6257853,102.31874 C58.6257853,102.543017 58.5618429,102.759445 58.4485417,102.954566 L58.0043109,103.707017 L61.7600801,103.707017 L61.3113622,102.954566 Z M56.2285096,93.7984393 L56.2285096,90.7897572 L58.1445353,90.7897572 C58.4081571,90.7897572 58.6257853,91.006185 58.6257853,91.2719538 L58.6257853,93.3207283 C58.6257853,93.5853757 58.4081571,93.7984393 58.1445353,93.7984393 L56.2285096,93.7984393 Z M79.5461378,89.6537919 C79.5461378,89.4373642 79.6044712,89.2243006 79.7155288,89.0370289 L80.1676122,88.2767283 L76.4107212,88.2767283 L76.8628045,89.0370289 C76.9727404,89.2243006 77.0321955,89.4373642 77.0321955,89.6537919 L77.0321955,95.8259075 L75.0331571,89.4373642 C74.9333173,89.1076763 74.9737019,88.7544393 75.1464583,88.4572717 L75.257516,88.2767283 L71.4972596,88.2767283 L71.9493429,89.0370289 C72.0592788,89.2243006 72.1176122,89.4373642 72.1176122,89.6582775 L72.1176122,102.329954 C72.1176122,102.546382 72.0592788,102.759445 71.9493429,102.946717 L71.4972596,103.707017 L75.257516,103.707017 L74.8054327,102.946717 C74.694375,102.759445 74.6360417,102.546382 74.6360417,102.329954 L74.6360417,96.2049364 L76.6204968,102.564324 C76.7225801,102.890647 76.6833173,103.24837 76.5060737,103.541052 L76.4107212,103.707017 L80.1676122,103.707017 L79.7155288,102.946717 C79.6044712,102.759445 79.5461378,102.546382 79.5461378,102.329954 L79.5461378,89.6537919 Z M97.9536699,89.6728555 C97.9536699,89.4452139 98.0153686,89.2209364 98.1297917,89.0224509 L98.5740224,88.2767283 L89.9047917,88.2767283 L90.3501442,89.0224509 C90.4668109,89.2209364 90.5251442,89.4452139 90.5251442,89.6728555 L90.5251442,102.31089 C90.5251442,102.539653 90.4668109,102.762809 90.3501442,102.961295 L89.9047917,103.707017 L93.6650481,103.707017 L93.2196955,102.961295 C93.1019071,102.762809 93.0435737,102.539653 93.0435737,102.31089 L93.0435737,97.1996069 L95.4397276,95.815815 L95.4397276,102.31089 C95.4397276,102.539653 95.3769071,102.762809 95.2591186,102.961295 L94.8182532,103.707017 L98.5740224,103.707017 L98.1297917,102.961295 C98.0153686,102.762809 97.9536699,102.539653 97.9536699,102.31089 L97.9536699,89.6728555 Z M93.0435737,94.2974566 L93.0435737,90.7897572 L95.4397276,90.7897572 L95.4397276,92.9136647 L93.0435737,94.2974566 Z M120.491651,89.324104 L121.113125,88.2767283 L117.357356,88.2767283 L117.764567,88.9641387 L114.714407,98.7246936 L111.664247,88.9641387 L112.07258,88.2767283 L108.312324,88.2767283 L108.932676,89.324104 L108.932676,102.659642 L108.312324,103.707017 L112.07258,103.707017 L111.451106,102.659642 L111.451106,96.3215607 L113.758638,103.707017 L115.670176,103.707017 L117.976587,96.3215607 L117.976587,102.659642 L117.357356,103.707017 L121.113125,103.707017 L120.491651,102.659642 L120.491651,89.324104 Z M130.842452,88.2767283 L131.297901,89.0403931 C131.407837,89.2243006 131.462804,89.4373642 131.462804,89.6504277 L131.462804,102.333318 C131.462804,102.546382 131.407837,102.756081 131.297901,102.943353 L130.842452,103.707017 L138.890208,103.707017 L138.890208,100.573861 L138.126266,101.02578 C137.938926,101.134555 137.729151,101.193988 137.512644,101.193988 L133.981234,101.193988 L133.981234,96.3148324 L136.255112,96.3148324 C136.471619,96.3148324 136.681394,96.3709017 136.869856,96.4807977 L137.632676,96.9360809 L137.632676,93.1771908 L136.869856,93.632474 C136.681394,93.7434913 136.471619,93.7984393 136.255112,93.7984393 L133.981234,93.7984393 L133.981234,90.7897572 L137.512644,90.7897572 C137.729151,90.7897572 137.938926,90.8491908 138.126266,90.9590867 L138.890208,91.4098844 L138.890208,88.2767283 L130.842452,88.2767283 Z M156.658317,89.6537919 C156.658317,89.4373642 156.716651,89.2243006 156.827708,89.0370289 L157.279792,88.2767283 L153.522901,88.2767283 L153.974984,89.0370289 C154.08492,89.2243006 154.144375,89.4373642 154.144375,89.6537919 L154.144375,95.8259075 L152.145337,89.4373642 C152.045497,89.1076763 152.085881,88.7544393 152.258638,88.4572717 L152.369696,88.2767283 L148.610561,88.2767283 L149.061522,89.0370289 C149.171458,89.2243006 149.229792,89.4373642 149.229792,89.6582775 L149.229792,102.329954 C149.229792,102.546382 149.171458,102.759445 149.061522,102.946717 L148.610561,103.707017 L152.369696,103.707017 L151.917612,102.946717 C151.806554,102.759445 151.748221,102.546382 151.748221,102.329954 L151.748221,96.2049364 L153.732676,102.564324 C153.83476,102.890647 153.795497,103.24837 153.618253,103.541052 L153.522901,103.707017 L157.279792,103.707017 L156.827708,102.946717 C156.716651,102.759445 156.658317,102.546382 156.658317,102.329954 L156.658317,89.6537919 Z M167.016971,88.2767283 L167.016971,91.4098844 L167.76633,90.965815 C167.961522,90.8525549 168.185881,90.7897572 168.413606,90.7897572 L169.47258,90.7897572 L169.47258,102.315376 C169.47258,102.539653 169.413125,102.762809 169.295337,102.957931 L168.851106,103.707017 L172.61024,103.707017 L172.16601,102.957931 C172.048221,102.762809 171.988766,102.539653 171.988766,102.315376 L171.988766,90.7897572 L173.04774,90.7897572 C173.275465,90.7897572 173.499824,90.8525549 173.695016,90.965815 L174.444375,91.4098844 L174.444375,88.2767283 L167.016971,88.2767283 Z"/>
    <path fill="#F7BE00" d="M36.3818269 141.573575C36.3818269 138.502095 33.8835897 136.003644 30.8244551 136.003644L24.8912821 136.003644 39.159391 111.30621 26.1734936 111.30621 14.4204487 131.664997 14.4204487 111.30621.382307692 111.30621 3.15987179 115.989124 3.15987179 175.637956.382307692 180.320869 14.4204487 180.320869 14.4204487 147.260129 22.6555449 147.260129C24.0196474 147.260129 25.1369551 148.36021 25.1369551 149.740638L25.1369551 180.320869 39.159391 180.320869 36.3818269 175.637956 36.3818269 141.573575zM56.5348718 117.665598C56.5348718 116.563274 56.8141987 115.496835 57.3728526 114.559355L59.3124359 111.30621 42.4967308 111.30621 44.4363141 114.559355C44.9949679 115.496835 45.2742949 116.563274 45.2742949 117.665598L45.2742949 173.978303C45.2742949 175.062684 44.9949679 176.131366 44.4363141 177.067725L42.4967308 180.320869 59.3124359 180.320869 57.3728526 177.067725C56.8141987 176.131366 56.5169231 175.062684 56.5169231 173.978303L56.5169231 117.665598 56.5348718 117.665598zM98.615641 117.468234C98.615641 116.498234 98.878141 115.546176 99.3717308 114.707378L101.393205 111.30621 84.5932051 111.30621 86.6158013 114.707378C87.109391 115.546176 87.371891 116.498234 87.371891 117.468234L87.371891 145.074546 78.4300641 116.498234C77.9858333 115.020245 78.1664423 113.442453 78.9382372 112.111366L79.4318269 111.30621 62.6161218 111.30621 64.6387179 114.707378C65.1300641 115.546176 65.3936859 116.498234 65.3936859 117.485054L65.3936859 174.159968C65.3936859 175.128846 65.1300641 176.082025 64.6387179 176.919702L62.6161218 180.320869 79.4318269 180.320869 77.4103526 176.919702C76.9167628 176.082025 76.6542628 175.128846 76.6542628 174.159968L76.6542628 146.766719 85.5310256 175.211829C85.9898397 176.672997 85.8103526 178.267609 85.020609 179.581875L84.5932051 180.320869 101.393205 180.320869 99.3717308 176.919702C98.878141 176.082025 98.615641 175.128846 98.615641 174.159968L98.615641 117.468234zM135.025737 136.151667C136.834071 135.116627 137.951378 133.177748 137.951378 131.089725L137.951378 116.777459C137.951378 113.754199 135.5025 111.30621 132.478141 111.30621L110.203782 111.30621C107.179423 111.30621 104.730545 113.754199 104.730545 116.777459L104.730545 174.849621C104.730545 177.872881 107.179423 180.320869 110.203782 180.320869L126.707628 180.320869 126.707628 187.025644 137.951378 193.516234 137.951378 142.215008 119.967885 152.600176 126.707628 156.477933 126.707628 163.084025 126.707628 169.082326 115.99 169.082326 115.99 122.545875 126.707628 122.545875 126.707628 140.966904 135.025737 136.151667zM164.893526 111.30621L146.844968 111.30621C143.737596 111.30621 141.223654 113.819239 141.223654 116.925482L141.223654 141.639736C141.223654 144.729158 143.737596 147.243309 146.844968 147.243309L160.537596 147.243309C162.017244 147.243309 163.200737 148.426372 163.200737 149.905482L163.200737 166.600696C163.200737 167.964303 162.083429 169.082326 160.7025 169.082326L155.212436 169.082326C153.700256 169.082326 152.466282 167.865621 152.466282 166.353991L152.466282 151.565135 144.03375 156.445413C142.308429 157.447933 141.223654 159.288129 141.223654 161.308869L141.223654 174.701598C141.223654 177.806719 143.737596 180.320869 146.844968 180.320869L168.823173 180.320869C171.929423 180.320869 174.444487 177.806719 174.444487 174.701598L174.444487 141.622916C174.444487 138.517794 171.929423 136.003644 168.823173 136.003644L154.899455 136.003644C153.569006 136.003644 152.466282 134.918141 152.466282 133.587054L152.466282 125.192349C152.466282 123.728939 153.666603 122.545875 155.129423 122.545875L168.099615 122.545875C169.184391 122.545875 170.25234 122.841921 171.174455 123.400372L174.444487 125.32243 174.444487 116.925482C174.444487 113.819239 171.929423 111.30621 168.823173 111.30621L164.893526 111.30621zM136.125096 72.8025931L152.221731 25.1413908 119.229744 42.0507896C120.096891 43.6207318 120.590481 45.4250439 120.590481 47.3459803 120.590481 53.4059572 115.675897 58.3187549 109.612596 58.3187549 103.550417 58.3187549 98.6358333 53.4059572 98.6358333 47.3459803 98.6358333 43.6106393 100.5025 40.3126393 103.354103 38.3300266L87.6658013 1.06632717 71.9775 38.3300266C74.8279808 40.3126393 76.6957692 43.6106393 76.6957692 47.3459803 76.6957692 53.4059572 71.7811859 58.3187549 65.7178846 58.3187549 59.6557051 58.3187549 54.7411218 53.4059572 54.7411218 47.3459803 54.7411218 45.4250439 55.2335897 43.6207318 56.1007372 42.0507896L23.1098718 25.1413908 39.2053846 72.8025931.382307692 72.8025931.382307692 80.6534254 174.226859 80.6534254 174.226859 72.8025931 136.125096 72.8025931z"/>
  </g>
</svg>
