<svg xmlns="http://www.w3.org/2000/svg" viewBox="0 0 156 173">
  <g fill="none" fill-rule="evenodd">
    <path fill="#FFF" d="M0.0864,78.721 L0.0864,81.515 L0.7544,81.119 C0.9284,81.018 1.1274,80.962 1.3314,80.962 L2.2744,80.962 L2.2744,91.24 C2.2744,91.44 2.2224,91.639 2.1174,91.813 L1.7204,92.481 L5.0724,92.481 L4.6764,91.813 C4.5704,91.639 4.5184,91.44 4.5184,91.24 L4.5184,80.962 L5.4624,80.962 C5.6654,80.962 5.8654,81.018 6.0384,81.119 L6.7064,81.515 L6.7064,78.721 L0.0864,78.721 Z M16.6324,78.721 C15.9384,78.721 15.3744,79.285 15.3744,79.975 L15.3744,91.227 C15.3744,91.917 15.9384,92.481 16.6324,92.481 L20.7374,92.481 C21.4314,92.481 21.9944,91.917 21.9944,91.227 L21.9944,79.975 C21.9944,79.285 21.4314,78.721 20.7374,78.721 L16.6324,78.721 Z M19.2494,90.24 L18.1204,90.24 C17.8404,90.24 17.6144,90.014 17.6144,89.739 L17.6144,81.463 C17.6144,81.189 17.8404,80.962 18.1204,80.962 L19.2494,80.962 C19.5284,80.962 19.7544,81.189 19.7544,81.463 L19.7544,89.739 C19.7544,90.014 19.5284,90.24 19.2494,90.24 L19.2494,90.24 Z M37.8364,78.721 L35.0424,78.721 L35.4254,79.369 C35.5364,79.556 35.5964,79.769 35.5964,79.985 L35.5964,89.723 C35.5964,90.007 35.3634,90.24 35.0784,90.24 L33.9744,90.24 C33.6894,90.24 33.4604,90.007 33.4604,89.723 L33.4604,79.985 C33.4604,79.769 33.5154,79.556 33.6274,79.373 L34.0134,78.721 L30.6624,78.721 L31.0494,79.373 C31.1594,79.556 31.2154,79.769 31.2154,79.985 L31.2154,91.37 C31.2154,91.982 31.7134,92.481 32.3264,92.481 L36.7264,92.481 C37.3394,92.481 37.8364,91.982 37.8364,91.37 L37.8364,79.985 C37.8364,79.769 37.8924,79.556 38.0034,79.373 L38.3904,78.721 L37.8364,78.721 Z M54.3994,91.81 C54.2974,91.639 54.2454,91.443 54.2454,91.243 L54.2454,85.876 C54.2454,85.263 53.1014,84.766 52.4924,84.766 C53.1014,84.766 54.2454,84.271 54.2454,83.658 L54.2454,79.835 C54.2454,79.22 53.7484,78.721 53.1314,78.721 L47.0714,78.721 L47.4704,79.392 C47.5714,79.566 47.6244,79.759 47.6244,79.959 L47.6244,91.243 C47.6244,91.443 47.5714,91.639 47.4704,91.81 L47.0714,92.481 L50.4224,92.481 L50.0224,91.81 C49.9204,91.639 49.8654,91.443 49.8654,91.243 L49.8654,85.889 L51.5764,85.889 C51.8114,85.889 52.0054,86.079 52.0054,86.316 L52.0054,91.243 C52.0054,91.443 51.9484,91.636 51.8474,91.81 L51.4514,92.481 L54.7994,92.481 L54.3994,91.81 Z M49.8684,83.645 L49.8684,80.962 L51.5764,80.962 C51.8114,80.962 52.0054,81.155 52.0054,81.392 L52.0054,83.219 C52.0054,83.455 51.8114,83.645 51.5764,83.645 L49.8684,83.645 Z M70.6544,79.949 C70.6544,79.756 70.7064,79.566 70.8054,79.399 L71.2084,78.721 L67.8594,78.721 L68.2624,79.399 C68.3604,79.566 68.4134,79.756 68.4134,79.949 L68.4134,85.453 L66.6314,79.756 C66.5424,79.462 66.5784,79.147 66.7324,78.882 L66.8314,78.721 L63.4794,78.721 L63.8824,79.399 C63.9804,79.566 64.0324,79.756 64.0324,79.953 L64.0324,91.253 C64.0324,91.446 63.9804,91.636 63.8824,91.803 L63.4794,92.481 L66.8314,92.481 L66.4284,91.803 C66.3294,91.636 66.2774,91.446 66.2774,91.253 L66.2774,85.791 L68.0464,91.462 C68.1374,91.753 68.1024,92.072 67.9444,92.333 L67.8594,92.481 L71.2084,92.481 L70.8054,91.803 C70.7064,91.636 70.6544,91.446 70.6544,91.253 L70.6544,79.949 Z M87.0634,79.966 C87.0634,79.763 87.1184,79.563 87.2204,79.386 L87.6164,78.721 L79.8884,78.721 L80.2854,79.386 C80.3894,79.563 80.4414,79.763 80.4414,79.966 L80.4414,91.236 C80.4414,91.44 80.3894,91.639 80.2854,91.816 L79.8884,92.481 L83.2404,92.481 L82.8434,91.816 C82.7384,91.639 82.6864,91.44 82.6864,91.236 L82.6864,86.678 L84.8224,85.444 L84.8224,91.236 C84.8224,91.44 84.7664,91.639 84.6614,91.816 L84.2684,92.481 L87.6164,92.481 L87.2204,91.816 C87.1184,91.639 87.0634,91.44 87.0634,91.236 L87.0634,79.966 Z M82.6864,84.09 L82.6864,80.962 L84.8224,80.962 L84.8224,82.856 L82.6864,84.09 Z M107.1544,79.655 L107.7084,78.721 L104.3604,78.721 L104.7234,79.334 L102.0044,88.038 L99.2854,79.334 L99.6494,78.721 L96.2974,78.721 L96.8504,79.655 L96.8504,91.547 L96.2974,92.481 L99.6494,92.481 L99.0954,91.547 L99.0954,85.895 L101.1524,92.481 L102.8554,92.481 L104.9124,85.895 L104.9124,91.547 L104.3604,92.481 L107.7084,92.481 L107.1544,91.547 L107.1544,79.655 Z M116.3814,78.721 L116.7874,79.402 C116.8854,79.566 116.9344,79.756 116.9344,79.946 L116.9344,91.256 C116.9344,91.446 116.8854,91.633 116.7874,91.8 L116.3814,92.481 L123.5554,92.481 L123.5554,89.687 L122.8744,90.09 C122.7074,90.187 122.5204,90.24 122.3274,90.24 L119.1794,90.24 L119.1794,85.889 L121.2064,85.889 C121.3994,85.889 121.5864,85.939 121.7544,86.037 L122.4344,86.443 L122.4344,83.091 L121.7544,83.497 C121.5864,83.596 121.3994,83.645 121.2064,83.645 L119.1794,83.645 L119.1794,80.962 L122.3274,80.962 C122.5204,80.962 122.7074,81.015 122.8744,81.113 L123.5554,81.515 L123.5554,78.721 L116.3814,78.721 Z M139.3944,79.949 C139.3944,79.756 139.4464,79.566 139.5454,79.399 L139.9484,78.721 L136.5994,78.721 L137.0024,79.399 C137.1004,79.566 137.1534,79.756 137.1534,79.949 L137.1534,85.453 L135.3714,79.756 C135.2824,79.462 135.3184,79.147 135.4724,78.882 L135.5714,78.721 L132.2194,78.721 L132.6224,79.399 C132.7204,79.566 132.7724,79.756 132.7724,79.953 L132.7724,91.253 C132.7724,91.446 132.7204,91.636 132.6224,91.803 L132.2194,92.481 L135.5714,92.481 L135.1684,91.803 C135.0694,91.636 135.0174,91.446 135.0174,91.253 L135.0174,85.791 L136.7864,91.462 C136.8774,91.753 136.8424,92.072 136.6844,92.333 L136.5994,92.481 L139.9484,92.481 L139.5454,91.803 C139.4464,91.636 139.3944,91.446 139.3944,91.253 L139.3944,79.949 Z M148.6284,78.721 L148.6284,81.515 L149.2964,81.119 C149.4704,81.018 149.6704,80.962 149.8734,80.962 L150.8174,80.962 L150.8174,91.24 C150.8174,91.44 150.7644,91.639 150.6594,91.813 L150.2634,92.481 L153.6144,92.481 L153.2184,91.813 C153.1134,91.639 153.0604,91.44 153.0604,91.24 L153.0604,80.962 L154.0044,80.962 C154.2074,80.962 154.4074,81.018 154.5814,81.119 L155.2494,81.515 L155.2494,78.721 L148.6284,78.721 Z"/>
    <path fill="#F7BE00" d="M32.1764 126.2486C32.1764 123.5096 29.9494 121.2816 27.2224 121.2816L21.9324 121.2816 34.6524 99.2576 23.0764 99.2576 12.5994 117.4126 12.5994 99.2576.0854 99.2576 2.5614 103.4336 2.5614 156.6256.0854 160.8016 12.5994 160.8016 12.5994 131.3196 19.9404 131.3196C21.1564 131.3196 22.1524 132.3006 22.1524 133.5316L22.1524 160.8016 34.6524 160.8016 32.1764 156.6256 32.1764 126.2486zM50.1404 104.9286C50.1404 103.9456 50.3904 102.9946 50.8884 102.1586L52.6174 99.2576 37.6274 99.2576 39.3564 102.1586C39.8544 102.9946 40.1034 103.9456 40.1034 104.9286L40.1034 155.1456C40.1034 156.1126 39.8544 157.0656 39.3564 157.9006L37.6274 160.8016 52.6174 160.8016 50.8884 157.9006C50.3904 157.0656 50.1254 156.1126 50.1254 155.1456L50.1254 104.9286 50.1404 104.9286zM87.6534 104.7526C87.6534 103.8876 87.8874 103.0386 88.3274 102.2906L90.1294 99.2576 75.1534 99.2576 76.9564 102.2906C77.3964 103.0386 77.6304 103.8876 77.6304 104.7526L77.6304 129.3706 69.6594 103.8876C69.2634 102.5696 69.4244 101.1626 70.1124 99.9756L70.5524 99.2576 55.5624 99.2576 57.3654 102.2906C57.8034 103.0386 58.0384 103.8876 58.0384 104.7676L58.0384 155.3076C58.0384 156.1716 57.8034 157.0216 57.3654 157.7686L55.5624 160.8016 70.5524 160.8016 68.7504 157.7686C68.3104 157.0216 68.0764 156.1716 68.0764 155.3076L68.0764 130.8796 75.9894 156.2456C76.3984 157.5486 76.2384 158.9706 75.5344 160.1426L75.1534 160.8016 90.1294 160.8016 88.3274 157.7686C87.8874 157.0216 87.6534 156.1716 87.6534 155.3076L87.6534 104.7526zM120.1104 121.4136C121.7224 120.4906 122.7184 118.7616 122.7184 116.8996L122.7184 104.1366C122.7184 101.4406 120.5354 99.2576 117.8384 99.2576L97.9834 99.2576C95.2874 99.2576 93.1044 101.4406 93.1044 104.1366L93.1044 155.9226C93.1044 158.6186 95.2874 160.8016 97.9834 160.8016L112.6954 160.8016 112.6954 166.7806 122.7184 172.5686 122.7184 126.8206 106.6874 136.0816 112.6954 139.5396 112.6954 145.4306 112.6954 150.7796 103.1414 150.7796 103.1414 109.2806 112.6954 109.2806 112.6954 125.7076 120.1104 121.4136zM146.7354 99.2576L130.6464 99.2576C127.8764 99.2576 125.6354 101.4986 125.6354 104.2686L125.6354 126.3076C125.6354 129.0626 127.8764 131.3046 130.6464 131.3046L142.8524 131.3046C144.1714 131.3046 145.2264 132.3596 145.2264 133.6786L145.2264 148.5666C145.2264 149.7826 144.2304 150.7796 142.9994 150.7796L138.1054 150.7796C136.7574 150.7796 135.6574 149.6946 135.6574 148.3466L135.6574 135.1586 128.1404 139.5106C126.6024 140.4046 125.6354 142.0456 125.6354 143.8476L125.6354 155.7906C125.6354 158.5596 127.8764 160.8016 130.6464 160.8016L150.2384 160.8016C153.0074 160.8016 155.2494 158.5596 155.2494 155.7906L155.2494 126.2926C155.2494 123.5236 153.0074 121.2816 150.2384 121.2816L137.8274 121.2816C136.6404 121.2816 135.6574 120.3136 135.6574 119.1266L135.6574 111.6406C135.6574 110.3356 136.7274 109.2806 138.0314 109.2806L149.5934 109.2806C150.5604 109.2806 151.5124 109.5446 152.3344 110.0426L155.2494 111.7566 155.2494 104.2686C155.2494 101.4986 153.0074 99.2576 150.2384 99.2576L146.7354 99.2576zM121.0905 64.9219L135.4395 22.4199 106.0295 37.4989C106.8025 38.8989 107.2425 40.5079 107.2425 42.2209 107.2425 47.6249 102.8615 52.0059 97.4565 52.0059 92.0525 52.0059 87.6705 47.6249 87.6705 42.2209 87.6705 38.8899 89.3355 35.9489 91.8775 34.1809L77.8925.9509 63.9075 34.1809C66.4485 35.9489 68.1135 38.8899 68.1135 42.2209 68.1135 47.6249 63.7325 52.0059 58.3275 52.0059 52.9235 52.0059 48.5425 47.6249 48.5425 42.2209 48.5425 40.5079 48.9815 38.8989 49.7545 37.4989L20.3455 22.4199 34.6935 64.9219.0855 64.9219.0855 71.9229 155.0555 71.9229 155.0555 64.9219 121.0905 64.9219z"/>
  </g>
</svg>
