<svg xmlns="http://www.w3.org/2000/svg" viewBox="0 0 75 101">
  <g fill="none" fill-rule="evenodd">
    <polygon fill="#FFF" points="43.467 69.954 54.243 52.298 66.059 52.298 53.226 73.499 57.82 79.196 38.634 100.855 44.144 80.336 41.965 77.663 35.806 100.738 26.568 90.831 36.986 52.298 48.692 52.298"/>
    <path fill="#F7BE00" d="M37.379703,0 L46.4636139,21.5872647 C44.8128713,22.7353971 43.7316832,24.6454853 43.7316832,26.8095588 C43.7316832,30.3207941 46.5772277,33.1666176 50.0881188,33.1666176 C53.5982673,33.1666176 56.4445545,30.3207941 56.4445545,26.8095588 C56.4445545,25.6970735 56.1586634,24.6521691 55.6566832,23.7424265 L74.7601485,13.9461691 L65.4178218,41.6216544 L37.379703,41.6216544 L9.34158416,41.6216544 L0,13.9461691 L19.1027228,23.7424265 C18.6007426,24.6521691 18.3155941,25.6970735 18.3155941,26.8095588 C18.3155941,30.3207941 21.1611386,33.1666176 24.6712871,33.1666176 C28.1821782,33.1666176 31.0277228,30.3207941 31.0277228,26.8095588 C31.0277228,24.6454853 29.9465347,22.7353971 28.2957921,21.5872647 L37.379703,0 Z"/>
    <polygon fill="#FFF" points="34.948 49.741 66.072 49.741 64.722 44.445 9.373 44.445 5.452 58.329 20.683 58.329 15.36 78.184 24.181 88.563"/>
  </g>
</svg>
