<svg xmlns="http://www.w3.org/2000/svg" viewBox="0 0 24 25">
  <path fill="#F7BE00" d="M2.57314142,0 L0.209603659,3.90625 L0.209603659,21.875 L6.51237101,21.875 L6.51237101,25 L9.66375469,25 L12.8151384,21.875 L16.754368,21.875 L23.8449812,14.84375 L23.8449812,0 L2.57314142,0 Z M20.6935976,13.28125 L16.754368,17.1875 L12.8151384,17.1875 L9.66375469,20.3125 L9.66375469,17.1875 L4.93667917,17.1875 L4.93667917,3.125 L20.6935976,3.125 L20.6935976,13.28125 Z M15.1786761,6.25 L17.5422139,6.25 L17.5422139,12.5 L15.1786761,12.5 L15.1786761,6.25 Z M10.4516006,6.25 L12.8151384,6.25 L12.8151384,12.5 L10.4516006,12.5 L10.4516006,6.25 Z"/>
</svg>
