<svg xmlns="http://www.w3.org/2000/svg" width="33" height="24" viewBox="0 0 33 24">
  <path fill="#F7BE00" d="M127.5,4 C127.5,4 124.060547,1.307617 120,1 L119.633789,1.73242225 C123.304688,2.63183575 124.989258,3.91796875 126.75,5.5 C123.714844,3.9501955 120.720704,2.5 115.5,2.5 C110.279297,2.5 107.285156,3.9501955 104.25,5.5 C106.010742,3.91796875 108.014648,2.48828125 111.366211,1.73242225 L111,1 C106.740235,1.401367 103.5,4 103.5,4 C103.5,4 99.6591795,9.56933575 99,20.5 C102.870117,24.9648438 108.75,25 108.75,25 L109.980469,23.3623045 C107.891602,22.635742 105.536133,21.3408205 103.5,19 C105.928711,20.8369143 109.59375,22.75 115.5,22.75 C121.40625,22.75 125.071289,20.8369143 127.5,19 C125.463867,21.3408205 123.108398,22.635742 121.019531,23.3623045 L122.25,25 C122.25,25 128.129883,24.9648438 132,20.5 C131.340821,9.56933575 127.5,4 127.5,4 Z M110.625,17.5 C109.174804,17.5 108,16.1582035 108,14.5 C108,12.8417972 109.174804,11.5 110.625,11.5 C112.075195,11.5 113.25,12.8417972 113.25,14.5 C113.25,16.1582035 112.075195,17.5 110.625,17.5 Z M120.375,17.5 C118.924804,17.5 117.75,16.1582035 117.75,14.5 C117.75,12.8417972 118.924804,11.5 120.375,11.5 C121.825195,11.5 123,12.8417972 123,14.5 C123,16.1582035 121.825195,17.5 120.375,17.5 Z" transform="translate(-99 -1)"/>
</svg>
