<svg xmlns="http://www.w3.org/2000/svg" viewBox="0 0 90 107">
  <g fill="none" fill-rule="evenodd">
    <polygon class="ribbon" fill="#000" points="0 0 90 0 90 107 45 82.69 0 107"/>
    <g transform="translate(20 9)">
      <polygon class="letter" fill="#FFF" points="27.819 45.02 34.716 33.657 42.277 33.657 34.065 47.301 37.005 50.967 24.726 64.907 28.252 51.701 26.858 49.981 22.916 64.831 17.004 58.456 23.671 33.657 31.163 33.657"/>
      <path class="crown" fill="#F7BE00" d="M23.9230099,0 L29.7367129,13.8927941 C28.6802376,14.6316912 27.9882772,15.8609559 27.9882772,17.2536765 C27.9882772,19.5133824 29.8094257,21.3448529 32.056396,21.3448529 C34.3028911,21.3448529 36.1245149,19.5133824 36.1245149,17.2536765 C36.1245149,16.5377206 35.9415446,15.8652574 35.6202772,15.2797794 L47.846495,8.97525735 L41.8674059,26.7862132 L23.9230099,26.7862132 L5.97861386,26.7862132 L0,8.97525735 L12.2257426,15.2797794 C11.9044752,15.8652574 11.7219802,16.5377206 11.7219802,17.2536765 C11.7219802,19.5133824 13.5431287,21.3448529 15.7896238,21.3448529 C18.0365941,21.3448529 19.8577426,19.5133824 19.8577426,17.2536765 C19.8577426,15.8609559 19.1657822,14.6316912 18.1093069,13.8927941 L23.9230099,0 Z"/>
      <polygon class="letter" fill="#FFF" points="22.367 32.012 42.286 32.012 41.422 28.603 5.999 28.603 3.489 37.539 13.237 37.539 9.831 50.317 15.476 56.996"/>
    </g>
  </g>
</svg>
