<svg xmlns="http://www.w3.org/2000/svg" xmlns:xlink="http://www.w3.org/1999/xlink" viewBox="0 0 414 507">
  <defs>
    <polygon id="bg-line-fractal-white-alpha-25-a" points=".051 .796 586 .796 586 521 .051 521"/>
    <polygon id="bg-line-fractal-white-alpha-25-c" points=".6 .162 20.995 .162 20.995 243 .6 243"/>
    <polygon id="bg-line-fractal-white-alpha-25-e" points=".012 .36 603.515 .36 603.515 120 .012 120"/>
    <polygon id="bg-line-fractal-white-alpha-25-g" points=".201 .987 237.062 .987 237.062 369.855 .201 369.855"/>
    <polygon id="bg-line-fractal-white-alpha-25-i" points=".192 .689 245.654 .689 245.654 197 .192 197"/>
    <polygon id="bg-line-fractal-white-alpha-25-k" points=".978 .008 521.523 .008 521.523 492 .978 492"/>
    <polygon id="bg-line-fractal-white-alpha-25-m" points=".93 .32 395.921 .32 395.921 279 .93 279"/>
    <polygon id="bg-line-fractal-white-alpha-25-o" points=".977 .475 486.251 .475 486.251 467.856 .977 467.856"/>
    <polygon id="bg-line-fractal-white-alpha-25-q" points=".929 .782 747.052 .782 747.052 455.94 .929 455.94"/>
    <polygon id="bg-line-fractal-white-alpha-25-s" points=".051 .961 227.872 .961 227.872 110 .051 110"/>
  </defs>
  <g fill="none" fill-rule="evenodd" opacity=".125" style="mix-blend-mode:luminosity" transform="translate(-245 -14)">
    <g transform="translate(168)">
      <mask id="bg-line-fractal-white-alpha-25-b" fill="#fff">
        <use xlink:href="#bg-line-fractal-white-alpha-25-a"/>
      </mask>
      <path stroke="#F7BE00" stroke-linecap="round" stroke-linejoin="round" stroke-width=".48" d="M425.093658,87.6807984 L415.554378,74.9645784 L433.178153,73.6488147 L425.093658,87.6807984 Z M407.163669,65.3658697 L408.440447,84.6280143 L427.734098,60.382945 L407.163669,65.3658697 Z M425.093658,87.6807984 L407.163669,65.3658697 L433.178153,73.6488147 L425.093658,87.6807984 Z M415.554378,74.9645784 L408.440447,84.6280143 L425.093658,87.6807984 L415.554378,74.9645784 Z M448.584254,85.6689532 L440.74134,67.2843381 L415.554378,74.9645784 L448.584254,85.6689532 Z M433.178153,73.6488147 L439.082059,92.8239491 L448.584254,85.6689532 L433.178153,73.6488147 Z M453.456142,99.8972403 L448.584254,85.6689532 L445.97666,99.4547617 L453.456142,99.8972403 Z M404.680044,79.7925825 L380.669201,71.1403747 L415.215317,74.9242566 L415.554378,74.9645784 L404.680044,79.7925825 Z M462.233593,387.139077 L456.899734,392.255701 L468.277362,396.622126 L462.233593,387.139077 Z M484.37642,398.337925 L484.145434,424.141749 L468.277362,396.622126 L484.37642,398.337925 Z M439.627736,381.919527 L448.553526,385.680065 L454.961786,373.68221 L439.627736,381.919527 Z M443.109472,369.062181 L454.961786,373.68221 L448.553526,385.680065 L443.109472,369.062181 Z M443.109472,369.062181 L433.141068,382.246346 L439.627736,381.919527 L443.109472,369.062181 Z M454.961786,373.68221 L462.233593,387.139077 L448.553526,385.680065 L454.961786,373.68221 Z M477.210569,389.751505 L468.277362,396.622126 L484.37642,398.337925 L477.210569,389.751505 Z M487.062421,431.936589 L507.19525,443.06222 L494.32999,444.520171 L487.062421,431.936589 Z M495.933115,414.119662 L497.846692,406.480804 L484.37642,398.337925 L495.933115,414.119662 Z M484.145434,424.141749 L487.062421,431.936589 L495.933115,414.119662 L484.145434,424.141749 Z M477.210569,389.751505 L462.233593,387.139077 L468.277362,396.622126 L477.210569,389.751505 Z M462.022739,378.947387 L462.233593,387.139077 L454.961786,373.68221 L462.022739,378.947387 Z M445.197878,423.028656 L436.724523,417.898238 L440.843059,413.747216 L445.197878,423.028656 Z M348.488039,105.051002 L376.400207,113.340314 L349.007227,93.0595132 L348.488039,105.051002 Z M269.885136,62.445723 L297.230436,71.8884501 L300.020275,53.5229348 L269.885136,62.445723 L269.885136,62.445723 Z M320.034432,87.0621772 L325.252799,66.1012118 L297.230436,71.8884501 L320.034432,87.0621772 Z M349.007227,93.0595132 L350.695116,75.6245825 L361.728385,82.6564908 L349.007227,93.0595132 Z M320.034432,87.0621772 L348.488039,105.051002 L349.007227,93.0595132 L320.034432,87.0621772 Z M369.234356,136.160326 L383.421956,151.664055 L376.400207,113.340314 L369.234356,136.160326 Z M348.488039,105.051002 L369.234356,136.160326 L376.400207,113.340314 L348.488039,105.051002 Z M376.400207,113.340314 L403.278237,103.558035 L392.612638,88.3238248 L376.400207,113.340314 Z M364.87106,87.4516008 L378.207828,84.9898493 L376.400207,113.340314 L364.87106,87.4516008 L364.87106,87.4516008 Z M378.207828,63.6861487 L380.669201,71.1403747 L397.463335,69.951943 L378.207828,63.6861487 Z M326.107869,56.9460428 L343.661712,58.841167 L341.116633,68.8590102 L326.107869,56.9460428 Z M293.922468,25.9640509 L308.145033,41.7956599 L287.196338,33.9647434 L293.922468,25.9640509 Z M257.788062,18.4535866 L272.869936,23.0704318 L267.002055,28.9754521 L257.788062,18.4535866 Z M371.336537,75.9991507 L370.314055,85.1511365 L392.612638,88.3238248 L371.336537,75.9991507 Z M341.116633,68.8590102 L320.034432,87.0621772 L350.695116,75.6245825 L341.116633,68.8590102 Z M220.990367,11.0195214 L243.161802,15.2501263 L243.052667,6.35174338 L220.990367,11.0195214 Z M387.779954,56.1661344 L396.451449,53.1366945 L394.156427,63.5492668 L387.779954,56.1661344 Z M384.616088,40.1435275 L390.741443,24.2450692 L393.730481,27.538723 L384.616088,40.1435275 Z M390.355761,50.8341079 L384.616088,40.1435275 L387.779954,56.1661344 L390.355761,50.8341079 Z M392.714356,44.0197251 L390.355761,50.8341079 L396.451449,53.1366945 L392.714356,44.0197251 Z M384.616088,40.1435275 L392.714356,44.0197251 L401.057385,38.1964094 L384.616088,40.1435275 Z M400.218208,44.7752281 L392.714356,44.0197251 L396.451449,53.1366945 L400.218208,44.7752281 Z M394.156427,63.5492668 L402.551375,68.0589409 L407.163669,65.3658697 L394.156427,63.5492668 Z M404.555015,58.0495866 L394.156427,63.5492668 L402.551375,68.0589409 L404.555015,58.0495866 Z M396.451449,53.1366945 L407.163669,52.3238921 L404.555015,58.0495866 L396.451449,53.1366945 Z M400.218208,44.7752281 L406.268335,46.5292261 L401.057385,38.1964094 L400.218208,44.7752281 Z M408.599382,36.4869776 L406.268335,46.5292261 L419.328555,38.0446721 L408.599382,36.4869776 Z M410.498125,27.0803279 L408.599382,36.4869776 L402.551375,26.4935397 L410.498125,27.0803279 Z M390.741443,24.2450692 L399.16182,17.4444807 L404.187346,20.1311853 L390.741443,24.2450692 Z M443.266288,20.7996782 L451.023376,31.3565601 L442.415456,25.4536619 L443.266288,20.7996782 Z M402.551375,68.0589409 L393.809949,79.7183055 L404.680044,79.7925825 L402.551375,68.0589409 Z M397.463335,69.951943 L394.156427,63.5492668 L402.551375,68.0589409 L397.463335,69.951943 Z M427.734098,60.382945 L435.303644,56.1661344 L428.966375,56.4674868 L427.734098,60.382945 Z M443.746272,61.5512159 L440.632205,66.9904134 L452.890333,65.5091181 L443.746272,61.5512159 Z M451.69832,60.0232322 L439.880972,53.9601079 L454.16923,54.8121711 L451.69832,60.0232322 Z M443.917921,48.9506558 L443.746272,61.5512159 L451.69832,60.0232322 L443.917921,48.9506558 Z M444.548364,44.7752281 L452.70173,50.3417576 L452.736696,43.3947373 L444.548364,44.7752281 Z M450.680077,39.276609 L445.136423,30.8567821 L451.023376,31.3565601 L450.680077,39.276609 Z M452.736696,43.3947373 L450.680077,39.276609 L447.621107,42.3633483 L452.736696,43.3947373 Z M438.068053,32.6362464 L445.404494,30.8790652 L442.415456,25.4536619 L438.068053,32.6362464 Z M422.27627,11.7347026 L427.488279,12.3883401 L426.48275,17.2365051 L422.27627,11.7347026 Z M407.163669,65.3658697 L410.189792,57.6262077 L404.555015,58.0495866 L407.163669,65.3658697 Z M428.966375,56.4674868 L415.554378,74.9645784 L410.189792,57.6262077 L428.966375,56.4674868 Z M439.412644,61.3687067 L440.632205,66.9904134 L427.734098,60.382945 L439.412644,61.3687067 Z M446.062485,69.951943 L452.890333,65.5091181 L451.69832,60.0232322 L446.062485,69.951943 Z M440.74134,67.2843381 L433.178153,73.6488147 L446.062485,69.951943 L440.74134,67.2843381 Z M448.584254,85.6689532 L459.766921,91.6164175 L464.719337,88.0479389 L448.584254,85.6689532 Z M495.238039,140.710322 L501.013737,136.668593 L499.85881,162.078749 L495.238039,140.710322 Z M508.93082,119.602925 L509.825095,130.2118 L501.013737,136.668593 L508.93082,119.602925 Z M493.47386,105.839399 L495.238039,140.710322 L465.54262,134.806363 L493.47386,105.839399 Z M482.095172,157.314411 L495.238039,140.710322 L465.54262,134.806363 L482.095172,157.314411 Z M509.825095,130.2118 L523.259342,122.458344 L519.209678,114.975468 L509.825095,130.2118 Z M508.93082,119.602925 L519.209678,114.975468 L509.462723,105.853193 L508.93082,119.602925 Z M540.712526,88.1699654 L525.618997,85.8281181 L546.932183,75.4908839 L540.712526,88.1699654 Z M552.103929,99.8823849 L534.112485,105.523191 L540.712526,88.1699654 L552.103929,99.8823849 Z M570.260665,84.5675316 L552.103929,99.8823849 L579.98431,90.9245804 L570.260665,84.5675316 Z M576.06921,72.738391 L579.98431,90.9245804 L591.661795,73.8366293 L576.06921,72.738391 Z M570.260665,84.5675316 L553.829963,70.3678941 L576.06921,72.738391 L570.260665,84.5675316 Z M388.59688,252.968314 L396.262846,241.206022 L410.996122,264.776232 L388.59688,252.968314 Z M498.719775,267.764289 L495.933115,277.049974 L474.1516,273.082521 L498.719775,267.764289 Z M410.996122,264.776232 L433.129412,282.193124 L474.553176,272.99445 L410.996122,264.776232 Z M302.982824,288.99053 L310.533297,326.943947 L322.008405,275.496523 L302.982824,288.99053 Z M302.982824,359.709648 L312.549653,383.524971 L317.602727,356.119947 L302.982824,359.709648 Z M467.194485,320.307829 L516.462221,333.784857 L495.933115,277.049974 L467.194485,320.307829 Z M504.763544,363.456391 L558.575763,372.522428 L516.462221,333.784857 L504.763544,363.456391 Z M424.323353,326.121595 L401.821333,367.855711 L447.343501,327.870287 L424.323353,326.121595 Z M286.347625,267.876766 L284.706356,251.792615 L280.501995,249.808358 L286.347625,267.876766 Z M295.096468,242.934554 L284.706356,251.792615 L288.398947,233.185169 L295.096468,242.934554 Z M307.485983,253.778994 L302.389467,264.179894 L302.511317,253.328026 L307.485983,253.778994 Z M247.186037,225.194026 L257.701178,222.214458 L248.997896,216.590629 L247.186037,225.194026 Z M252.138452,208.58357 L248.997896,216.590629 L248.277391,201.745843 L252.138452,208.58357 Z M202.757342,225.849786 L220.134237,231.2858 L214.872429,236.333452 L202.757342,225.849786 Z M207.230833,211.953623 L214.872429,236.333452 L202.757342,225.849786 L207.230833,211.953623 Z M230.899436,159.249857 L230.899436,153.111395 L235.858208,158.603648 L230.899436,159.249857 Z M230.15456,258.261079 L280.501995,249.808358 L247.186037,225.194026 L230.15456,258.261079 Z M188.392795,282.494477 L169.359797,306.335267 L168.156129,329.876827 L188.392795,282.494477 Z M152.98949,334.632676 L168.156129,329.876827 L157.821115,343.595786 L152.98949,334.632676 Z M235.12181,385.868941 L222.788452,354.484792 L236.153828,356.223935 L235.12181,385.868941 Z M209.934847,395.532377 L236.153828,356.223935 L235.12181,385.868941 L209.934847,395.532377 Z M286.347625,267.876766 L287.674203,274.278381 L297.054548,267.082002 L286.347625,267.876766 Z M302.389467,264.179894 L314.29158,272.107371 L297.054548,267.082002 L302.389467,264.179894 Z M390.741443,24.2450692 L389.098055,17.6726171 L382.755488,21.1891018 L390.741443,24.2450692 Z M374.934826,21.9446049 L376.142732,28.1849328 L382.755488,21.1891018 L374.934826,21.9446049 Z M388.399801,2.97001833 L392.236492,6.20955601 L393.531282,0.795824847 L388.399801,2.97001833 Z M345.312517,53.3818086 L349.149208,56.6224073 L350.445059,51.2086762 L345.312517,53.3818086 Z M374.24081,47.2030244 L378.844627,39.4612403 L374.426234,36.0147882 L374.24081,47.2030244 Z M363.070856,31.4902587 L374.426234,36.0147882 L376.142732,28.1849328 L363.070856,31.4902587 Z M368.353856,18.9119817 L359.648456,19.3470326 L360.93477,8.90262729 L368.353856,18.9119817 Z M344.273082,7.63355193 L338.986903,7.04570265 L337.323384,12.5443218 L344.273082,7.63355193 Z M264.339364,83.8343116 L292.369144,107.416193 L286.095449,81.1614012 L264.339364,83.8343116 Z M263.759781,96.8221731 L286.095449,81.1614012 L264.339364,83.8343116 L263.759781,96.8221731 Z M243.052667,110.324668 L239.610134,100.455379 L247.249611,98.8403849 L243.052667,110.324668 Z M343.392582,33.3800774 L349.694885,40.6730163 L338.778169,46.4125051 L343.392582,33.3800774 Z M363.070856,31.4902587 L359.648456,42.9947026 L349.694885,40.6730163 L363.070856,31.4902587 Z M315.738949,42.6774338 L312.371645,48.389334 L308.145033,41.7956599 L315.738949,42.6774338 Z M330.890754,35.2571629 L338.875649,46.1376802 L349.694885,40.6730163 L330.890754,35.2571629 Z M155.090611,595.731136 L432.758564,282.918916 L155.090611,595.731136 Z M558.575763,372.522428 L0.0505604693,579.860267 L558.575763,372.522428 Z" mask="url(#bg-line-fractal-white-alpha-25-b)"/>
    </g>
    <g transform="translate(643 278)">
      <mask id="bg-line-fractal-white-alpha-25-d" fill="#fff">
        <use xlink:href="#bg-line-fractal-white-alpha-25-c"/>
      </mask>
      <path stroke="#F7BE00" stroke-linecap="round" stroke-linejoin="round" stroke-width=".961" d="M20.9945842,0.161823144 L0.600268421,273.95491" mask="url(#bg-line-fractal-white-alpha-25-d)"/>
    </g>
    <g transform="translate(40 401)">
      <mask id="bg-line-fractal-white-alpha-25-f" fill="#fff">
        <use xlink:href="#bg-line-fractal-white-alpha-25-e"/>
      </mask>
      <path stroke="#F7BE00" stroke-linecap="round" stroke-linejoin="round" stroke-width=".48" d="M0.0115472855,0.360318584 L603.51547,150.978372" mask="url(#bg-line-fractal-white-alpha-25-f)"/>
    </g>
    <path stroke="#F7BE00" stroke-linecap="round" stroke-linejoin="round" stroke-width=".961" d="M246,324 L572,338"/>
    <g transform="translate(490 151)">
      <mask id="bg-line-fractal-white-alpha-25-h" fill="#fff">
        <use xlink:href="#bg-line-fractal-white-alpha-25-g"/>
      </mask>
      <path stroke="#F7BE00" stroke-linecap="round" stroke-linejoin="round" stroke-width=".48" d="M61.4236563,0.986633087 L1.56771875,332.604505 M1.56771875,332.604505 L154.638906,400.770148 M0.20134375,270.53564 L237.062344,221.565363 M0.20134375,270.53564 L61.5139688,1.0396209" mask="url(#bg-line-fractal-white-alpha-25-h)"/>
    </g>
    <g transform="translate(0 324)">
      <mask id="bg-line-fractal-white-alpha-25-j" fill="#fff">
        <use xlink:href="#bg-line-fractal-white-alpha-25-i"/>
      </mask>
      <path stroke="#F7BE00" stroke-linecap="round" stroke-linejoin="round" stroke-width=".961" d="M0.19160431,230.577803 L245.654009,0.689394086" mask="url(#bg-line-fractal-white-alpha-25-j)"/>
    </g>
    <path stroke="#F7BE00" stroke-linecap="round" stroke-linejoin="round" stroke-width="1.441" d="M396,411 L246,324"/>
    <path stroke="#F7BE00" stroke-linecap="round" stroke-linejoin="round" stroke-width=".48" d="M482.554787,272 L396,411.769121 M396,411.769121 L492,484 M490.637659,421.733797 L396,411.769121 M492,484 L490.637659,421.733797"/>
    <path stroke="#F7BE00" stroke-linecap="round" stroke-linejoin="round" stroke-width=".961" d="M748,91 L600,283"/>
    <path stroke="#F7BE00" stroke-linecap="round" stroke-linejoin="round" stroke-width=".48" d="M726,434.61561 L493,483 M622.612547,373.658998 L644.968106,359.440639 M569.587214,367.869575 L666.827813,402.537567 M725.400539,433.959686 L496.247873,330"/>
    <path stroke="#F7BE00" stroke-linecap="round" stroke-linejoin="round" stroke-width=".961" d="M467,295 L246,324"/>
    <g transform="translate(205 29)">
      <mask id="bg-line-fractal-white-alpha-25-l" fill="#fff">
        <use xlink:href="#bg-line-fractal-white-alpha-25-k"/>
      </mask>
      <path stroke="#F7BE00" stroke-linecap="round" stroke-linejoin="round" stroke-width=".48" d="M190.896249,382.687249 L487.084566,430.219327 M412.827944,470.008766 L521.522773,405.419982 M412.827944,470.008766 L450.51698,402.999215 M412.827944,470.008766 L286.629139,454.729197 M412.827944,470.008766 L439.820224,522.931637 M221.424761,0.00774051724 L417.050627,298.873353 M472.833541,90.700094 L291.562676,300.886947 M0.978431707,452.506715 L261.902041,266.645232" mask="url(#bg-line-fractal-white-alpha-25-l)"/>
    </g>
    <path stroke="#F7BE00" stroke-linecap="round" stroke-linejoin="round" stroke-width=".961" d="M206,481 L246,324"/>
    <g transform="translate(0 242)">
      <mask id="bg-line-fractal-white-alpha-25-n" fill="#fff">
        <use xlink:href="#bg-line-fractal-white-alpha-25-m"/>
      </mask>
      <path stroke="#F7BE00" stroke-linecap="round" stroke-linejoin="round" stroke-width=".48" d="M205.880082,239.488296 L323.080157,353.712805 M205.880082,239.488296 L40.2947517,159.485311 M0.930440751,312.631912 L205.880082,239.488296 M167.733497,337.845874 L205.880082,239.488296 M395.9208,169.513398 L323.080157,353.712805 M0.930440751,0.319523954 L205.880082,239.488296" mask="url(#bg-line-fractal-white-alpha-25-n)"/>
    </g>
    <path stroke="#F7BE00" stroke-linecap="round" stroke-linejoin="round" stroke-width=".961" d="M40,402 L245.518204,324.946435 M489.713963,276.165313 L625,195.488517 M481.986302,272.779532 L604.915934,46"/>
    <g transform="translate(205 53)">
      <mask id="bg-line-fractal-white-alpha-25-p" fill="#fff">
        <use xlink:href="#bg-line-fractal-white-alpha-25-o"/>
      </mask>
      <path stroke="#F7BE00" stroke-linecap="round" stroke-linejoin="round" stroke-width=".48" d="M262.636665,0.474539756 L261.304826,242.642585 M117.849448,542.572292 L284.989965,368.430099 M117.849448,542.572292 L286.477432,430.623133 M486.251185,406.043183 L411.940278,445.853388 M0.976858478,428.342202 L190.486556,358.363236" mask="url(#bg-line-fractal-white-alpha-25-p)"/>
    </g>
    <path stroke="#F7BE00" stroke-linecap="round" stroke-linejoin="round" stroke-width=".961" d="M601,281.636146 L395,412 M482.690123,281 L540.826176,331.104744"/>
    <g transform="translate(0 65)">
      <mask id="bg-line-fractal-white-alpha-25-r" fill="#fff">
        <use xlink:href="#bg-line-fractal-white-alpha-25-q"/>
      </mask>
      <path stroke="#F7BE00" stroke-linecap="round" stroke-linejoin="round" stroke-width=".48" d="M495.63656,264.830228 L571.677223,137.046242 M620.244249,0.781777494 L571.677223,137.046242 M624.430294,129.916617 L747.052498,26.1935223 M0.928854958,177.393722 L191.068124,294.045358 M191.068124,294.045358 L205.459178,416.447135 M191.068124,294.045358 L394.952158,346.906791 M191.068124,294.432376 L0.928854958,489.555471" mask="url(#bg-line-fractal-white-alpha-25-r)"/>
    </g>
    <g transform="translate(168 411)">
      <mask id="bg-line-fractal-white-alpha-25-t" fill="#fff">
        <use xlink:href="#bg-line-fractal-white-alpha-25-s"/>
      </mask>
      <path stroke="#F7BE00" stroke-linecap="round" stroke-linejoin="round" stroke-width=".961" d="M0.0508555556,168.671673 L227.87193,0.960807692" mask="url(#bg-line-fractal-white-alpha-25-t)"/>
    </g>
    <path stroke="#F7BE00" stroke-linecap="round" stroke-linejoin="round" stroke-width=".48" d="M480.600332,383.665445 L396,411.778324 M541,331 L491.879954,484"/>
  </g>
</svg>
