<svg xmlns="http://www.w3.org/2000/svg" viewBox="0 0 414 501">
  <g fill="none" fill-rule="evenodd" stroke="#F7BE00" stroke-linecap="round" stroke-linejoin="round" opacity=".4" style="mix-blend-mode:multiply" transform="translate(-206 -233)">
    <g style="mix-blend-mode:color-burn" transform="translate(124 228)">
      <path stroke-width=".27" d="M580.701523 85.1413409L571.349009 72.6791511 588.627413 71.3898314 580.701523 85.1413409zM563.123749 63.274702L564.374817 82.1501934 583.290512 58.3911958 563.123749 63.274702zM580.701523 85.1413409L563.123749 63.274702 588.627413 71.3898314 580.701523 85.1413409zM571.349009 72.6791511L564.374817 82.1501934 580.701523 85.1413409 571.349009 72.6791511zM603.730772 83.1694403L596.04142 65.1541119 571.349009 72.6791511 603.730772 83.1694403zM588.627413 71.3898314L594.415217 90.1820812 603.730772 83.1694403 588.627413 71.3898314zM608.507742 97.1133304L603.730772 83.1694403 601.175046 96.6804742 608.507742 97.1133304zM560.688141 77.4109726L537.148856 68.9332798 571.016377 72.640305 571.349009 72.6791511 560.688141 77.4109726zM617.111833 378.591969L611.883961 383.606812 623.036386 387.885429 617.111833 378.591969zM638.82164 389.566909L638.594341 414.853852 623.036386 387.885429 638.82164 389.566909zM594.951125 373.479086L603.701204 377.163913 609.98426 365.404652 594.951125 373.479086zM598.362455 360.87816L609.98426 365.404652 603.701204 377.163913 598.362455 360.87816zM598.362455 360.87816L588.590454 373.799103 594.951125 373.479086 598.362455 360.87816zM609.98426 365.404652L617.111833 378.591969 603.701204 377.163913 609.98426 365.404652zM631.795705 381.15396L623.036386 387.885429 638.82164 389.566909 631.795705 381.15396zM641.45498 422.49173L661.191168 433.394527 648.578857 434.822583 641.45498 422.49173zM650.149621 405.031345L652.025298 397.547002 638.82164 389.566909 650.149621 405.031345zM638.594341 414.853852L641.45498 422.49173 650.149621 405.031345 638.594341 414.853852zM631.795705 381.15396L617.111833 378.591969 623.036386 387.885429 631.795705 381.15396zM616.90671 370.56563L617.111833 378.591969 609.98426 365.404652 616.90671 370.56563zM600.41184 413.762462L592.10527 408.734671 596.141209 404.666932 600.41184 413.762462zM505.598675 102.16332L532.963232 110.285848 506.108711 90.4133079 505.598675 102.16332zM428.538839 60.4130413L455.347161 69.6658057 458.082139 51.6689755 428.538839 60.4130413 428.538839 60.4130413zM477.703753 84.5346023L482.8189 63.9942792 455.347161 69.6658057 477.703753 84.5346023zM506.108711 90.4133079L507.762633 73.3265856 518.578729 80.2171389 506.108711 90.4133079zM477.703753 84.5346023L505.598675 102.16332 506.108711 90.4133079 477.703753 84.5346023zM525.937297 132.648237L539.846874 147.840751 532.963232 110.285848 525.937297 132.648237zM505.598675 102.16332L525.937297 132.648237 532.963232 110.285848 505.598675 102.16332zM532.963232 110.285848L559.313261 100.700118 548.857516 85.7721272 532.963232 110.285848zM521.661123 84.9175136L534.735423 82.5035077 532.963232 110.285848 521.661123 84.9175136 521.661123 84.9175136zM534.735423 61.6283685L537.148856 68.9332798 553.614159 67.7678977 534.735423 61.6283685zM483.657873 55.0226864L500.867903 56.8798986 498.37316 66.696856 483.657873 55.0226864zM452.103995 24.6635561L466.048684 40.1760876 445.510482 32.5030635 452.103995 24.6635561zM416.678647 17.3031504L431.464156 21.8259431 425.711464 27.6140078 416.678647 17.3031504zM527.999618 73.6946984L526.996177 82.6625916 548.857516 85.7721272 527.999618 73.6946984zM498.37316 66.696856L477.703753 84.5346023 507.762633 73.3265856 498.37316 66.696856zM380.604665 10.018587L402.340343 14.162168 402.233161 5.44399953 380.604665 10.018587zM544.119353 54.2587136L552.621806 51.2916137 550.370993 61.4933321 544.119353 54.2587136zM541.01848 38.5575013L547.024342 22.9783765 549.953355 26.2063002 541.01848 38.5575013zM546.645511 49.0348418L541.01848 38.5575013 544.119353 54.2587136 546.645511 49.0348418zM548.957306 42.3551673L546.645511 49.0348418 552.621806 51.2916137 548.957306 42.3551673zM541.01848 38.5575013L548.957306 42.3551673 557.136367 36.6503441 541.01848 38.5575013zM556.314025 43.0969423L548.957306 42.3551673 552.621806 51.2916137 556.314025 43.0969423zM550.370993 61.4933321L558.601797 65.9143851 563.123749 63.274702 550.370993 61.4933321zM560.566176 56.104827L550.370993 61.4933321 558.601797 65.9143851 560.566176 56.104827zM552.621806 51.2916137L563.123749 50.4943443 560.566176 56.104827 552.621806 51.2916137zM556.314025 43.0969423L562.24597 44.8154185 557.136367 36.6503441 556.314025 43.0969423zM564.530045 34.9744136L562.24597 44.8154185 575.04862 36.5005093 564.530045 34.9744136zM566.392787 25.7567956L564.530045 34.9744136 558.601797 25.1815038 566.392787 25.7567956zM547.024342 22.9783765L555.277321 16.3135005 560.205824 18.9457843 547.024342 22.9783765zM598.517683 19.6006181L606.122029 29.9466219 597.684254 24.1622568 598.517683 19.6006181zM558.601797 65.9143851L550.032817 77.3388299 560.688141 77.4109726 558.601797 65.9143851zM553.614159 67.7678977L550.370993 61.4933321 558.601797 65.9143851 553.614159 67.7678977zM583.290512 58.3911958L590.71191 54.2587136 584.499076 54.5546837 583.290512 58.3911958zM598.988912 59.53623L595.936086 64.8655411 607.951507 63.413438 598.988912 59.53623zM606.783598 58.0378815L595.198751 52.0962823 609.20627 52.9323977 606.783598 58.0378815zM599.157076 47.1868787L598.988912 59.53623 606.783598 58.0378815 599.157076 47.1868787zM599.774294 43.0969423L607.766711 48.5520407 607.801822 41.7428792 599.774294 43.0969423zM605.785701 37.7084371L600.350857 29.4564215 606.122029 29.9466219 605.785701 37.7084371zM607.801822 41.7428792L605.785701 37.7084371 602.786465 40.7328813 607.801822 41.7428792zM593.421016 31.2007951L600.613267 29.4786193 597.684254 24.1622568 593.421016 31.2007951zM577.938826 10.7178163L583.050277 11.3597014 582.063468 16.110021 577.938826 10.7178163zM563.123749 63.274702L566.089722 55.6904689 560.566176 56.104827 563.123749 63.274702zM584.499076 54.5546837L571.349009 72.6791511 566.089722 55.6904689 584.499076 54.5546837zM594.73861 59.3567981L595.936086 64.8655411 583.290512 58.3911958 594.73861 59.3567981zM601.260052 67.7678977L607.951507 63.413438 606.783598 58.0378815 601.260052 67.7678977zM596.04142 65.1541119L588.627413 71.3898314 601.260052 67.7678977 596.04142 65.1541119zM603.730772 83.1694403L614.694705 88.998201 619.549289 85.5002047 603.730772 83.1694403zM649.469572 137.106287L655.131715 133.145837 653.998917 158.046169 649.469572 137.106287zM662.893137 116.423528L663.769069 126.819477 655.131715 133.145837 662.893137 116.423528zM647.739884 102.936542L649.469572 137.106287 620.356847 131.321921 647.739884 102.936542zM636.583763 153.377241L649.469572 137.106287 620.356847 131.321921 636.583763 153.377241zM663.769069 126.819477L676.941311 119.222295 672.97005 111.889636 663.769069 126.819477zM662.893137 116.423528L672.97005 111.889636 663.416109 102.94949 662.893137 116.423528zM694.051552 85.6204425L679.253106 83.3266744 700.147964 73.1952489 694.051552 85.6204425zM705.21876 97.0985319L687.580004 102.625773 694.051552 85.6204425 705.21876 97.0985319zM723.020136 82.0909994L705.21876 97.0985319 732.551902 88.3193196 723.020136 82.0909994zM728.713694 70.4982216L732.551902 88.3193196 744 71.5748127 728.713694 70.4982216zM723.020136 82.0909994L706.911489 68.1767063 728.713694 70.4982216 723.020136 82.0909994zM544.921366 247.114663L552.435162 235.586629 566.880647 258.683393 544.921366 247.114663zM652.88275 261.613497L650.149621 270.710877 628.79647 266.82442 652.88275 261.613497zM566.880647 258.683393L588.579367 275.751617 629.190085 266.737479 566.880647 258.683393zM460.987128 282.412794L468.390047 319.605133 479.640413 269.190331 460.987128 282.412794zM460.987128 351.714186L470.365513 375.051427 475.319888 348.195842 460.987128 351.714186zM621.975658 313.101191L670.277576 326.308855 650.149621 270.710877 621.975658 313.101191zM658.807303 355.386065L711.562799 364.268867 670.277576 326.308855 658.807303 355.386065zM579.945708 318.798615L557.884789 359.696129 602.514816 320.513391 579.945708 318.798615zM444.678901 261.722636L443.06933 245.96038 438.946537 244.018076 444.678901 261.722636zM453.255273 237.281057L443.06933 245.96038 446.689479 227.726773 453.255273 237.281057zM465.401899 247.908233L460.405021 258.098852 460.525139 247.466127 465.401899 247.908233zM406.285732 219.896515L416.59364 216.975661 408.06162 211.465068 406.285732 219.896515zM411.140317 203.618161L408.06162 211.465068 407.353852 196.918139 411.140317 203.618161zM362.72937 220.5384L379.763844 225.865862 374.606194 230.812261 362.72937 220.5384zM367.114573 206.921927L374.606194 230.812261 362.72937 220.5384 367.114573 206.921927zM390.319378 155.275149L390.319378 149.259558 395.179507 154.642513 390.319378 155.275149zM389.587587 252.299689L438.946537 244.018076 406.285732 219.896515 389.587587 252.299689zM348.646084 276.047587L329.987255 299.410725 328.806411 322.477893 348.646084 276.047587zM313.937743 327.139421L328.806411 322.477893 318.674058 335.922333 313.937743 327.139421zM394.458803 377.348894L382.365768 346.593904 395.469636 348.297582 394.458803 377.348894zM369.764545 386.818087L395.469636 348.297582 394.458803 377.348894 369.764545 386.818087zM444.678901 261.722636L445.978016 267.995352 455.175301 260.943865 444.678901 261.722636zM460.405021 258.098852L472.073026 265.868067 455.175301 260.943865 460.405021 258.098852zM547.024342 22.9783765L545.411075 16.5373278 539.194545 19.9835294 547.024342 22.9783765zM531.527369 20.7234545L532.71191 26.8389362 539.194545 19.9835294 531.527369 20.7234545zM544.727331 2.12913471L548.489773 5.30526356 549.759319 0 544.727331 2.12913471zM502.486714 51.5302395L506.247308 54.7063684 507.516855 49.4011048 502.486714 51.5302395zM530.84732 45.4758017L535.360033 37.8897188 531.02842 34.5119603 530.84732 45.4758017zM519.896323 30.0779587L531.02842 34.5119603 532.71191 26.8389362 519.896323 30.0779587zM525.074301 17.7526549L516.540432 18.1781119 517.802587 7.94309683 525.074301 17.7526549zM501.466641 6.70002253L496.284968 6.12288089 494.653221 11.511386 501.466641 6.70002253zM423.102147 81.3714221L450.581278 104.481135 444.431275 78.752087 423.102147 81.3714221zM422.532976 94.0999851L444.431275 78.752087 423.102147 81.3714221 422.532976 94.0999851zM402.233161 107.331697L398.856943 97.6590252 406.348563 96.0774351 402.233161 107.331697zM500.603645 31.9296214L506.781367 39.0772987 496.079845 44.7007301 500.603645 31.9296214zM519.896323 30.0779587L516.540432 41.3507188 506.781367 39.0772987 519.896323 30.0779587zM473.492258 41.0399502L470.191805 46.6374843 466.048684 40.1760876 473.492258 41.0399502zM488.346142 33.7683355L496.175938 44.4306574 506.781367 39.0772987 488.346142 33.7683355zM315.996368 583L588.215319 276.463795 315.996368 583zM711.562799 364.268867L164 567.448622 711.562799 364.268867zM39 392L631 539"/>
      <path stroke-width=".54" d="M241,316 L561,330"/>
      <path stroke-width=".27" d="M539.966164,147 L481.338547,472.162534 M481.338547,472.162534 L631.268769,539 M480,411.301546 L712,363.284531 M480,411.301546 L540.055031,147.05176"/>
      <path stroke-width=".54" d="M0,542 L241,316"/>
      <path stroke-width=".81" d="M388,402 L241,317"/>
      <path stroke-width=".27" d="M472.751434 266L388 402.47341M388 402.47341L482 473M480.66664 412.203572L388 402.47341M482 473L480.66664 412.203572M712 425.248259L483 473M610.387154 365.087841L632.358998 351.05541M558.271034 359.374148L653.842825 393.589656M711.410313 424.602089L486.192443 322"/>
      <path stroke-width=".54" d="M457,289 L241,317"/>
      <path stroke-width=".27" d="M387.070336,401.685049 L677.259137,448.223788 M604.505287,487.180912 L711,423.942305 M604.505287,487.180912 L641.430506,421.572705 M604.505287,487.180912 L480.864608,472.220844 M604.505287,487.180912 L630.950978,539 M416.981464,27 L608.641991,319.622615 M663.295679,115.798159 L485.698468,321.59328 M201,470.04517 L456.637981,288.067954"/>
      <path stroke-width=".54" d="M202,471 L241,317"/>
      <path stroke-width=".27" d="M201.803807,470.166263 L316.632904,582 M201.803807,470.166263 L39.5693568,391.837379 M1,541.778657 L201.803807,470.166263 M164.428004,566.466151 L201.803807,470.166263 M388,401.654357 L316.632904,582 M1,236 L201.803807,470.166263"/>
      <path stroke-width=".54" d="M39,392 L240.302391,316.461195 M479.490515,268.640288 L612,189.548239 M471.920393,265.319983 L592.328775,43"/>
      <path stroke-width=".27" d="M458.659694,51 L457.35358,288.209653 M316.640591,582 L480.586519,411.422314 M316.640591,582 L482.04412,472.34186 M678,448.264654 L605.110716,487.260706 M202,470.108654 L387.887534,401.561456"/>
      <path stroke-width=".54" d="M589,275.615869 L388,402 M473.562121,275 L530.286002,323.574388"/>
      <path stroke-width=".27" d="M486.343404,321.769584 L560.945051,196.541321 M608.591805,63 L560.945051,196.541321 M612.698742,189.553694 L733,87.9040514 M1,236.080569 L187.539251,350.40037 M187.539251,350.40037 L201.657424,470.354638 M187.539251,350.40037 L387.56427,402.204938 M187.539251,350.779328 L1,542"/>
      <path stroke-width=".54" d="M164,567 L387,402"/>
      <path stroke-width=".27" d="M470.43351,374.632663 L387,402.194042 M530,323 L481.557607,473"/>
    </g>
  </g>
</svg>
